<svg xmlns="http://www.w3.org/2000/svg" viewBox="0 0 469 290.27"><defs><style>.cls-1{stroke:#000;stroke-miterlimit:10;stroke-width:4px;}</style></defs><title>Ресурс 1</title><g id="Слой_2" data-name="Слой 2"><g id="Слой_1-2" data-name="Слой 1"><path d="M234.59,248a103.5,103.5,0,1,1,103.5-103.5A103.62,103.62,0,0,1,234.59,248Zm0-200a96.5,96.5,0,1,0,96.5,96.5A96.61,96.61,0,0,0,234.59,48Z"/><line x1="338.52" y1="144.58" x2="468.52" y2="144.58"/><path d="M339,144.92l1.46-.38c1-.23,2.35-.6,4.13-1s3.93-.88,6.41-1.37l3.94-.76a7.33,7.33,0,0,1,2.14,0c.72.06,1.47.12,2.23.12h89.38c.76,0,1.51-.06,2.23-.11a5.9,5.9,0,0,1,2.14.05l3.94.74c2.48.49,4.64,1,6.41,1.34s3.18.74,4.13,1l1.46.36-1.46.37c-1,.22-2.35.58-4.13,1s-3.93.87-6.41,1.36l-3.94.76a6.38,6.38,0,0,1-2.14.17c-.72-.05-1.47.05-2.23.05H359.31c-.76,0-1.51-.1-2.23,0a6.94,6.94,0,0,1-2.14-.1c-1.39-.26-2.71-.54-3.94-.77-2.48-.49-4.64-1-6.41-1.38s-3.18-.76-4.13-1Z"/><path d="M130,144.92l-1.46.38c-.95.22-2.35.6-4.13,1s-3.93.88-6.41,1.37l-3.94.75a6.94,6.94,0,0,1-2.14.14c-.72-.06-1.47,0-2.23,0H20.31c-.76,0-1.51-.1-2.23-.05a6.38,6.38,0,0,1-2.14-.13L12,147.62c-2.48-.49-4.64-1-6.41-1.37s-3.18-.74-4.13-1L0,144.92l1.46-.37c1-.22,2.35-.58,4.13-1s3.93-.86,6.41-1.35l3.94-.76a5.91,5.91,0,0,1,2.14,0c.72.05,1.47.11,2.23.11h89.38c.76,0,1.51-.06,2.23-.12a7.3,7.3,0,0,1,2.14,0l3.94.74c2.48.49,4.64,1,6.41,1.36s3.18.75,4.13,1Z"/><path class="cls-1" d="M43.91,82.83c-1.81,2-2.67,3.75-2.47,5.09s2.08,3.76,8.26,7.15c9.23,5.06,16.91,9.56,17.2,9.66,2.55.84,19-6,28.95-7.44,11.21-1.24,16.31-1.76,23.62-2.73.72-1.73,1.1-2.58,1.89-4.26s1.91-2.19,3.21-1.9,1.45,1.2.76,2.75-1,2.43-1.7,4.09a4.46,4.46,0,0,1-.92,1.68,7.37,7.37,0,0,1-2.38.65c-6.78,1.09-11.72,1.67-22.78,3.05-9.46,1.18-17,2.74-20.89,4.57a15.26,15.26,0,0,0-8.18,8c-.47,1.16-.7,1.75-1.14,2.93,15.15.65,30.31,1.25,45.44,2.15.29-1.78.45-2.66.8-4.39.38-1.89,1.52-2.72,3-2.56s2,1.13,1.62,3a95.1,95.1,0,0,0-1.52,12.15c-.14,2-.85,2.92-2.52,2.89s-2.62-1.07-2.44-3.06c.17-1.82.27-2.72.5-4.5-30.8-1.39-61.63-1.94-92.43-3.35-1.12,2.26-1.67,3.41-2.71,5.73C16,126.73,14.49,128,12.85,128s-1.75-1.37-.58-3.94a131.68,131.68,0,0,1,8.43-16c1.45-2.41,2.82-3.5,4.33-3.35s1.65,1.39.25,3.77c-1.3,2.18-1.92,3.29-3.14,5.54,12.09.74,24.2,1.24,36.3,1.76.5-1.2.75-1.8,1.27-3,1.24-2.82.9-5-1-6.53s-7.8-4.25-14.6-8.16c-6.28-3.6-8-6.4-8.31-8.24s1.25-4.56,4.36-8A11.19,11.19,0,0,1,43.48,79a6.12,6.12,0,0,1,3.18.08c2.23.45,3.52.69,6.34,1.17s4.09,1.32,3.09,2.47-3.15,1.55-6,1.11S46.12,83.23,43.91,82.83Z"/><path class="cls-1" d="M108,67.77c10.83,2.48,16.34,3.72,23.34,5.91a84.26,84.26,0,0,1,6.54-8,2.92,2.92,0,0,1,1.48-1,2.28,2.28,0,0,1,1.42.13,1,1,0,0,1,.69.79,1.81,1.81,0,0,1-.61,1.29,79.71,79.71,0,0,0-10,13.66,2.64,2.64,0,0,1-1.24,1.17,2.4,2.4,0,0,1-1.48,0A1.74,1.74,0,0,1,127,81a1.49,1.49,0,0,1,.28-1.47c.88-1.39,1.34-2.08,2.27-3.42-20.83-5.69-42.26-8.8-63.08-14.54-2,1.65-3,2.49-5,4.19A7.06,7.06,0,0,1,59,67.29a3.34,3.34,0,0,1-1.92.14c-.55-.15-.76-.44-.67-.87a4.14,4.14,0,0,1,1.48-1.79,223.12,223.12,0,0,1,23.2-17.25,45.06,45.06,0,0,1,17.65-7.1c6.11-1,11-.48,15.22,1.27a13.57,13.57,0,0,1,5.46,3.77,7.23,7.23,0,0,1,1.85,4.23,12.12,12.12,0,0,1-1.15,5.73,15.14,15.14,0,0,1-3.79,4.41C112.87,62.87,111.18,64.46,108,67.77Zm-5.8-1.31c3.55-3.44,5.4-5.09,9.22-8.24a11,11,0,0,0,4-5.74,5.94,5.94,0,0,0-.76-5.18A9.61,9.61,0,0,0,110.13,44c-3.16-1.24-7.08-1.54-12-.78a34.2,34.2,0,0,0-13.69,5.32c-5.84,3.83-8.68,5.85-14.17,10.08C80.77,61.7,91.47,64,102.15,66.46Z"/><path class="cls-1" d="M172.43,30.4a157.53,157.53,0,0,0-21,9.77c2.66,3.57,4.15,5.31,6.11,8.48,1.89-1.29,2.86-1.91,4.81-3.1A3.35,3.35,0,0,1,164,45a1.5,1.5,0,0,1,1.07.34.68.68,0,0,1,.23.78,2.34,2.34,0,0,1-1,1,91.94,91.94,0,0,0-8.85,6.16,3.14,3.14,0,0,1-1.46.71,1.71,1.71,0,0,1-1.15-.23.89.89,0,0,1-.51-.81c0-.32.3-.7.87-1.12.74-.56,1.12-.83,1.87-1.37-7.16-8.93-15.48-17.18-17.79-28.85-5.47,2.15-8.18,3.28-13.55,5.67a9.72,9.72,0,0,1-2.62.84,2.2,2.2,0,0,1-1.48-.23c-.31-.23-.3-.51,0-.86a6.84,6.84,0,0,1,2.12-1.26c9.36-4.12,14.14-6,23.75-9.44A198.52,198.52,0,0,1,184.93,34.7l2.16-.76a3.56,3.56,0,0,1,1.6-.25,1.15,1.15,0,0,1,.82.48.59.59,0,0,1-.06.73,2.78,2.78,0,0,1-1.27.72,94.82,94.82,0,0,0-10,4,3.64,3.64,0,0,1-1.56.41,1.2,1.2,0,0,1-.88-.4.68.68,0,0,1-.1-.8,2.52,2.52,0,0,1,1.24-.89C179,37,180,36.59,182,35.78,178.66,33.83,176.66,32.69,172.43,30.4Zm-3-1.58a150.46,150.46,0,0,0-25.7-9.73l-1.72.64c0,6.69,2.51,10.73,7.67,18A166.53,166.53,0,0,1,169.46,28.82Z"/><path class="cls-1" d="M203.29,4.94c.25.75.39,1.14.68,1.94,7.37-.75,13.25-.19,17.26,1.48s6.08,3.93,6.51,6.67-.86,5-3.47,7-6.79,3.16-12.7,4c.29.8.43,1.19.69,1.94,1.17-.17,1.75-.24,2.93-.39,1.76-.22,2.72,0,2.85.49s-.66.94-2.39,1.16c-3.45.45-5.17.73-8.58,1.38-1.82.35-2.82.29-3.06-.25s.55-1,2.39-1.42c1.15-.21,1.72-.31,2.87-.5-.29-.75-.44-1.14-.77-1.94-5.74.92-10.33,1.06-14.36-.07S187,23.32,185,20.54s-2-5.53.36-8S192.71,8.17,200,7.31c-.32-.8-.48-1.19-.76-1.94-1.43.17-2.14.25-3.56.44-2.68.34-4.15.24-4.4-.33s1.17-1,4.23-1.39c4.45-.55,6.69-.78,11.21-1.15,2.44-.2,3.72,0,3.86.53s-1,.93-3.4,1.12C205.64,4.72,204.86,4.79,203.29,4.94Zm-2.46,4.25c-4.66.71-8,1.71-9.89,2.85s-3,2.41-3.38,3.75a4.81,4.81,0,0,0,.8,3.95c1.36,2.07,3.73,3.57,6.9,4.53s7.22.95,12.45.3C205.19,18.69,203.33,15.06,200.83,9.19Zm10,14.92c5.16-.86,8.73-1.91,10.75-3.52s2.94-3.41,2.53-5.45-2-3.73-5.1-5-7.92-1.85-14.37-1.34C206.92,14.61,208.6,18.24,210.86,24.11Z"/><path class="cls-1" d="M262.41,5.35c-2.2,8-3.7,14.54-5.9,22.56,3.09.45,4.63.71,7.68,1.31a3.35,3.35,0,0,1,1.42.53.61.61,0,0,1,.21.7.91.91,0,0,1-.68.48,4.15,4.15,0,0,1-1.56-.08,120.48,120.48,0,0,0-18.14-2.47,3.64,3.64,0,0,1-1.49-.33c-.29-.17-.42-.37-.4-.6a.74.74,0,0,1,.53-.57,3.71,3.71,0,0,1,1.58-.13c3.14.23,4.71.38,7.82.76,1.88-8,3-14.59,4.93-22.57-6.51-.62-9.82-.84-16.46-1.1-.15,2.33-.2,3.65-.28,6.35a1.12,1.12,0,0,1-.54,1,2.63,2.63,0,0,1-1.36.25,2.7,2.7,0,0,1-1.33-.34,1.14,1.14,0,0,1-.55-1c0-3.48-.06-5.19.06-8a401.56,401.56,0,0,1,44.86,4.49c-1.29,2.79-2.09,4.49-3.71,8a1.68,1.68,0,0,1-1,.93,2.62,2.62,0,0,1-1.4,0A2,2,0,0,1,275.6,15a1,1,0,0,1,0-1.12l2.72-6.33C272.06,6.49,268.87,6.05,262.41,5.35Z"/><path class="cls-1" d="M339,43.68a81.49,81.49,0,0,1-18.23,2.76,67.17,67.17,0,0,1-15.14-.84,38.28,38.28,0,0,1-10.49-3.35c-4.5-2.21-7.59-4.77-9.49-8.42s-1.81-7.6.7-11.92,6.57-7.3,12.3-8.6,11.85-1,24.59,3.42c8.6,3,15.75,6.4,20.74,10s7,7,6,10S344.83,42,339,43.68Zm-4.56-2.57c6.49-2.21,10-5.42,8.1-9.89s-9.39-9-20.84-13C311,14.53,304.83,14.05,300,15.39a17,17,0,0,0-10.45,7.4c-2.3,3.76-2.53,7.23-1,10.48s4.17,5.58,8.19,7.49c4.61,2.19,9.21,3.27,16.34,3.32S328,43.33,334.48,41.11Z"/><path class="cls-1" d="M326.36,59.19c20.24-2.58,40.44-5.43,60.68-8-2.82-1.89-4.26-2.83-7.23-4.69a7.94,7.94,0,0,1-2.34-1.85c-.24-.42-.1-.69.44-.79a4.3,4.3,0,0,1,2.15.3,17.14,17.14,0,0,1,3.4,1.72,259,259,0,0,1,31.45,23.06c5.39,4.63,7.93,8.32,7,10.94s-4.94,3.72-11.54,3.44c-9.3-.38-27-6.77-27-6.74-.36.25-1.59,5.46-5.18,6.77a36.37,36.37,0,0,1-13.67,1.57,60.44,60.44,0,0,1-13-1.92,40.69,40.69,0,0,1-10.27-4.28,21.16,21.16,0,0,1-6.4-5.41A83,83,0,0,0,319.37,57c-.55-.47-.79-.83-.71-1.1s.36-.44.87-.54a4,4,0,0,1,1.72,0,4.44,4.44,0,0,1,1.81,1C324.41,57.45,325.07,58,326.36,59.19ZM365,57.56a149.25,149.25,0,0,1,12.73,10.75,40.91,40.91,0,0,0,9.53,6.44,48,48,0,0,0,10.31,3.68,49.15,49.15,0,0,0,10.13,1.51c4.18.1,6.83-.78,7.66-2.77s-.91-4.75-4.89-8.17a203.37,203.37,0,0,0-18.29-14.27C383.23,55.58,377,56.26,365,57.56Zm-36.27,3.82a85.53,85.53,0,0,1,10.65,11.88,15.73,15.73,0,0,0,5.35,4.32A36.23,36.23,0,0,0,353,80.7,45.72,45.72,0,0,0,362.36,82a26.14,26.14,0,0,0,9.48-1.22c2.69-1,4.16-2.39,4.26-4.27s-1.5-4.53-4.92-7.82a140.57,140.57,0,0,0-12.07-10.54C349,59.28,338.86,60.38,328.72,61.38Z"/><path class="cls-1" d="M385.67,120a71.12,71.12,0,0,0-6.16-19c-9.27-1.73-18.52-3.64-27.64-6,.88,2.15,1.28,3.24,2,5.44.23.68.11,1.15-.31,1.38a3.05,3.05,0,0,1-1.87.2,4.58,4.58,0,0,1-2-.69,2.83,2.83,0,0,1-1.16-1.57,78.57,78.57,0,0,0-4.13-10.39c-.3-.64-.3-1.07,0-1.29a2.39,2.39,0,0,1,1.58-.22,6,6,0,0,1,2.14.61A3.2,3.2,0,0,1,349.63,90c.41.85.6,1.28,1,2.13C383,100.29,416.38,103.63,448.7,112c-2.22-3.46-3.47-5.3-6.3-9.1-.57-.76-.73-1.29-.48-1.57s.78-.37,1.56-.28a5.9,5.9,0,0,1,2.21.74,6.21,6.21,0,0,1,1.91,1.77,126.71,126.71,0,0,1,9.92,14.94c-33,2.56-66.21,2.8-99,7.06,0,1,0,1.42.06,2.38a1.64,1.64,0,0,1-.79,1.56,3.77,3.77,0,0,1-2,.42,3,3,0,0,1-1.79-.56,2,2,0,0,1-.69-1.67,81.48,81.48,0,0,0-.92-11.69c-.11-.76,0-1.27.45-1.52a2.76,2.76,0,0,1,1.76-.26,5.05,5.05,0,0,1,2.1.68,2.23,2.23,0,0,1,1,1.66c.32,2.3.45,3.45.62,5.78C366.87,121.32,373.06,120.87,385.67,120Zm8.77-.57c18.91-1.13,37.84-2,56.73-3.43-.24-.41-.36-.62-.61-1-20.47-5.2-41.41-8.49-62.17-12.26A73,73,0,0,1,394.44,119.47Z"/><path class="cls-1" d="M22,173.15c28.85-1.81,57.75-2.59,86.6-4.4-.41-2.18-.58-3.28-.88-5.51a2.48,2.48,0,0,1,.48-2.15,2.94,2.94,0,0,1,3.65-.09,3.19,3.19,0,0,1,.88,2.05,91.16,91.16,0,0,0,5.9,23.75c1.63,4.4,1.85,8.13-.12,11.63s-5.42,5.94-11.06,7.27c-7.13,1.67-24.08-3.5-24.12-3.47-.52.35-.6,8.18-2.88,10.93a17.94,17.94,0,0,1-9.72,5.8,30.1,30.1,0,0,1-11.77.67,36.68,36.68,0,0,1-12.77-4.48,36.6,36.6,0,0,1-11.06-9.32,138.85,138.85,0,0,1-20.46-40.12,4.75,4.75,0,0,1,0-3.05,1.64,1.64,0,0,1,1.55-.95,2.87,2.87,0,0,1,2.09.86,6.15,6.15,0,0,1,1.45,3A78.92,78.92,0,0,0,22,173.15Zm51,2.16a83.92,83.92,0,0,0,6.53,15.61A21,21,0,0,0,87.35,199a24.26,24.26,0,0,0,9.27,3.19,25.8,25.8,0,0,0,9-.15,11.91,11.91,0,0,0,8-5.22c1.72-2.67,1.73-5.59.38-9a87.11,87.11,0,0,1-4.62-15C97.3,173.78,85.15,174.55,73,175.31Zm-48.88,3.35a114.24,114.24,0,0,0,15.26,25.82A26.92,26.92,0,0,0,48,211.76a29.74,29.74,0,0,0,9.85,3.4,23.3,23.3,0,0,0,8.87-.22,13.5,13.5,0,0,0,7.21-4.16,9.78,9.78,0,0,0,2.56-7.33c-.15-2.86-1.65-6.54-4.29-11.32a84.85,84.85,0,0,1-7.25-16.31C51.3,176.69,37.7,177.51,24.12,178.66Z"/><path class="cls-1" d="M74.87,238c18.51-7.87,38.07-12.89,56.57-20.78-1.26-1.52-1.87-2.3-3.06-3.89-1-1.31-.77-2.24.45-2.73s2.18-.07,3.1,1.22a93.68,93.68,0,0,0,9.29,11.37c1.06,1.14,1.22,2,.29,2.56s-2,.33-3.17-.83c-1.86-1.9-2.77-2.88-4.54-4.91-17.06,7.83-35,13.52-52.32,20.77,24.71.56,49.31-.46,73.67-4.93,2.78,2.14,4.21,3.15,7.08,5,1.23.8,1.61,1.48,1.05,2.11s-1.5.59-2.77-.21c-1.54-1-2.3-1.47-3.82-2.51-10.26,9.06-21.83,16.4-32.09,25.46,2.71,1.14,4.05,1.68,6.7,2.71,2.18.85,2.94,1.57,2.38,2.21s-1.88.54-4.11-.31c-7.42-2.82-11.32-4.46-19.17-8.17-2.37-1.11-3.23-2-2.46-2.62s2.36-.35,4.66.76c2.79,1.34,4.17,2,6.92,3.21,10.65-8.74,22.51-15.77,33.3-24.33-24.66,4.69-49.57,5.93-74.61,5-5.52-3.64-8.25-5.57-13.52-9.63-2.23-1.72-2.78-2.85-1.56-3.34s3,.13,5.12,1.82C70.86,235.08,72.19,236.07,74.87,238Z"/><path class="cls-1" d="M197.06,258c-8.93-2.23-14-3.77-21.72-7.2-6.71,8.6-13.89,16.8-20.6,25.4,2.23.58,2.75.73,5.6,1.35,2.35.51,3.29,1.06,2.9,1.66s-1.74.64-4.17.13a120.58,120.58,0,0,1-15-3.93c-2-.63-2.88-1.28-2.38-1.91s1.82-.61,3.83,0,3,.95,5,1.51c7.24-8.6,14.71-17,21.94-25.59-1.31-.63-2-1-3.28-1.64s-1.65-1.35-1.15-2,1.34-.57,2.59.11c10.59,5.78,22.33,9.5,34.12,11.92,1.46.3,2.14.71,2,1.29s-.95.76-2.45.46-2.29-.46-3.81-.81c-2.77,8.68-6.33,15.83-9.11,24.52,2.08.31,3.11.46,5.14.73s2.91.7,2.78,1.29-1.18.74-3.22.47c-6.36-.84-9.64-1.35-16.51-2.54-2.19-.37-3.19-.86-2.91-1.45s1.53-.7,3.68-.31c2.57.45,3.84.67,6.34,1.08C189.9,273.83,193.84,266.64,197.06,258Z"/><path class="cls-1" d="M236.93,262.58c.39,8.54,0,15.46.34,24,5.51-.09,8.24-.22,13.74-.64a6.2,6.2,0,0,1,2.09.08c.43.12.67.32.71.58s-.14.47-.54.66a5.78,5.78,0,0,1-2,.41,292,292,0,0,1-32.14.29,7,7,0,0,1-2.15-.37c-.43-.19-.63-.41-.61-.66s.26-.46.7-.6a7,7,0,0,1,2.16-.11c5.71.32,8.49.4,14,.4-.17-8.56.5-15.5.33-24.05-4.62,0-6.93-.14-11.55-.52a4.43,4.43,0,0,1-1.71-.4c-.33-.2-.49-.43-.46-.69s.2-.45.56-.57a4.52,4.52,0,0,1,1.71-.08,130.18,130.18,0,0,0,26.11,0,4.9,4.9,0,0,1,1.73.08c.36.12.57.31.61.57a.72.72,0,0,1-.43.69,4.16,4.16,0,0,1-1.68.39C243.85,262.41,241.55,262.52,236.93,262.58Z"/><path class="cls-1" d="M309.84,275.4c-2.55-3.94-4.15-6.31-7.22-10.9a24.72,24.72,0,0,1-2.69,2.35,33.12,33.12,0,0,1-14,6.36,25.71,25.71,0,0,1-10,.45c-3-.51-4.87-2.62-5.87-6.13s-1.47-5.22-2.32-8.23c-1.43.29-2.14.42-3.57.68-1.86.33-2.86.17-3-.41s.73-1,2.55-1.32c4.51-.81,6.76-1.3,11.22-2.41,1.81-.45,2.81-.43,3,.15s-.57,1.12-2.41,1.57-2.71.65-4.51,1.05c.92,2.92,1.46,4.59,2.54,8,.75,2.35,1.95,3.93,3.64,4.64s4.34.7,8-.13c5.5-1.26,11.95-4.31,15.64-9.19-2.82-4.2-4.26-6.33-6.61-9.94-1.45.58-2.28.81-3.82,1.32-1.82.61-2.9.59-3.21,0s.45-1.13,2.22-1.73a50.65,50.65,0,0,0,10.23-4.46c1.72-1,2.76-1.24,3.17-.66s-.25,1.44-2,2.39c-1.38.76-2.06,1.11-3.44,1.75,5.41,7.9,11,15.69,16.19,23.72,1.66-.51,2.52-.78,4.26-1.36,2.2-.74,3.55-.84,3.91-.22s-.63,1.33-2.83,2a213.23,213.23,0,0,1-21.37,5.55c-2.55.57-3.91.57-4.17,0s.83-1.14,3.33-1.71C301.88,277.41,305.68,276.53,309.84,275.4Z"/><path class="cls-1" d="M343.47,207.52a11.81,11.81,0,0,0-2.41,5.3c-.17,1.57.51,4.78,1.93,9.83a38.72,38.72,0,0,1,1.36,13.75c.17.19,11.69-2.46,20.4-.86l17.7,3.24c2.82-2.05,4.23-3.1,7-5.27,2.63-2,4.38-2.67,5.17-1.8s-.23,2.38-2.93,4.42-4.2,3.14-7,5.13a14.86,14.86,0,0,1-3.05,1.84A6.69,6.69,0,0,1,379,243c-6.25-1.23-9.87-1.94-16.95-3.31-6.05-1.18-10.79-1.33-14.08-.52a31.26,31.26,0,0,0-10.31,5.2c-1.19.85-1.78,1.27-3,2.09,5.62,5.7,8.61,8.76,12.14,14.18,2.41-1.23,3.63-1.87,6.08-3.2,2.66-1.45,4.3-1.82,4.8-1s-.66,1.93-3.37,3.34c-6.88,3.59-10.27,5.19-16.75,8-2.51,1.09-3.9,1.25-4.29.57s.6-1.54,3.09-2.66c2.28-1,3.43-1.56,5.77-2.69-6.79-9.89-15.6-18.11-23.72-26.86-1.56,1.39-2.35,2.07-3.92,3.36s-2.84,1.75-3.31,1.15.16-1.54,1.83-3a108.3,108.3,0,0,0,10.5-10.14c1.6-1.73,2.68-2.32,3.34-1.68s.2,1.88-1.48,3.59-2.32,2.35-3.89,3.84c3.61,3.84,6.08,6.13,10.75,10.78,1.14-.83,1.71-1.26,2.85-2.12,2.7-2,4.32-4.06,4.78-6s.16-5.77-1.14-11.42c-1.21-5.22-1.72-8.81-1.55-10.95s1.43-4.82,3.64-8.09c1.07-1.58,1.82-2.44,2.34-2.59s1.27.12,2.38.82c1.65,1,2.53,1.59,4.39,2.72s2.51,2.4,1.56,3.59-2.4,1.23-4.12.11S344.94,208.51,343.47,207.52Z"/><path class="cls-1" d="M419.31,174.65a190.18,190.18,0,0,1-21.13,28.71c5,5.85,7,8.93,9,15,3.43-3.22,5.11-4.89,8.39-8.31a7.07,7.07,0,0,1,2.63-2,1.89,1.89,0,0,1,1.83.17,1.39,1.39,0,0,1,.4,1.58,6.78,6.78,0,0,1-1.84,2.69,190,190,0,0,1-17.19,15.9,7.36,7.36,0,0,1-2.75,1.65,1.54,1.54,0,0,1-1.57-.34,1.41,1.41,0,0,1-.19-1.55,6.81,6.81,0,0,1,2-2.37c1.43-1.23,2.14-1.85,3.55-3.11-6.57-19.73-25.39-32.6-41.57-44-1.87,3.91-2.93,5.94-5.25,10.06a3.25,3.25,0,0,1-1.55,1.54,2.09,2.09,0,0,1-1.66-.1,1.72,1.72,0,0,1-1-1.15,3,3,0,0,1,.46-2,115.9,115.9,0,0,0,7.3-16.14c29.12-.74,58.14.18,87.14-3.13.9-1.71,1.33-2.58,2.17-4.33a7.41,7.41,0,0,1,2-2.78,2.64,2.64,0,0,1,2.07-.58,1.32,1.32,0,0,1,1.1,1.23,6,6,0,0,1-.85,3.17,141.18,141.18,0,0,1-12.12,21,7.51,7.51,0,0,1-2.41,2.51,2,2,0,0,1-1.85.11,1.53,1.53,0,0,1-.84-1.5,6.1,6.1,0,0,1,1.29-3c2.65-3.95,3.91-6,6.28-10.1A236.4,236.4,0,0,1,419.31,174.65Zm-7.27.08c-16.35-.07-32.69-.48-49-.63-.2.47-.3.71-.52,1.18,11.56,6.77,22.64,14.56,32.12,24.07A186.34,186.34,0,0,0,412,174.73Z"/><path d="M187.14,157.48c1.93,4.63,3.71,9.27,5.34,14,.8,2.37,1.6,4.74,2.3,7.15a72.58,72.58,0,0,1,1.88,7.35c.51,2.48.86,5,1.3,7.33a12.08,12.08,0,0,0,.89,3,2.94,2.94,0,0,0,.69.9,2.49,2.49,0,0,0,.44.32l.75.38c2.37,1.25,4.33,2.51,6.48,3.49a29.81,29.81,0,0,0,6.64,2.16,30.7,30.7,0,0,0,3.48.51l.88.08.93.07,1.85.15c2.48.19,5,.42,7.43.66l7.39.74c.58,0,1.24.12,1.76.14l.4,0h.1c-.07,0,.05,0,.06,0h.23l.93,0c1.24-.06,2.47-.11,3.69-.19l7.36-.46L254,205c1.26-.08,2.44-.14,3.62-.28a39.88,39.88,0,0,0,7-1.37,12.48,12.48,0,0,0,5.6-3,3.79,3.79,0,0,0,.66-1.06,3,3,0,0,0,.16-.56l.18-.94c.27-1.29.57-2.49.89-3.71.63-2.43,1.33-4.83,2.05-7.21,1.47-4.77,3-9.49,4.85-14.17a54.71,54.71,0,0,1,3.16-7,10.37,10.37,0,0,1,.57-.91l.57-.78c.38-.51.8-1,1.21-1.54a22.94,22.94,0,0,1,2.81-2.86,10.29,10.29,0,0,1,3.85-2.15,6.86,6.86,0,0,1,2.43-.22c.76.06,1.6.3,1.8.3,0,0,0,0,0,0a2.37,2.37,0,0,1,.54,0,2.64,2.64,0,0,1,.55.15,2.87,2.87,0,0,1,.3.14,2.79,2.79,0,0,1,.44.31,4.62,4.62,0,0,1,.94,1.11,9.57,9.57,0,0,1,.94,2.05,13.12,13.12,0,0,1,.51,2.12,6.3,6.3,0,0,1-.07,2.61,3.05,3.05,0,0,1-1.22,1.74,2.79,2.79,0,0,1-1.15.45l-.27,0-.12,0s0,0,0,0-.06,0-.14.05l-.31.13-.82.37a12,12,0,0,1-4.17,1.15,17.78,17.78,0,0,1-8-1.62,47.29,47.29,0,0,1-6.78-3.65l-.4-.25-.32-.18a1.51,1.51,0,0,0-.26-.07,1,1,0,0,0-.68.2,6.82,6.82,0,0,0-1.82,2.29,35,35,0,0,0-2.57,6.6c-.69,2.32-1.26,4.7-1.78,7.09-1,4.78-1.86,9.66-2.49,14.52l-2.19-.6h0c1.65-3.74,3.33-7.46,4.94-11.22.79-1.87,1.58-3.76,2.34-5.64.39-.95.73-1.88,1.17-2.88a12,12,0,0,1,1.77-2.83c.15-.19.33-.44.54-.67s.22-.24.39-.4a1.66,1.66,0,0,1,.51-.3,1.13,1.13,0,0,1,.49-.09,1.27,1.27,0,0,1,1,.58,1.34,1.34,0,0,1,.19.67,1.58,1.58,0,0,1,0,.28,2.23,2.23,0,0,1-.31.75l-.31.43a5.71,5.71,0,0,1-.69.7,6,6,0,0,1-3.46,1.45,7.41,7.41,0,0,1-3.55-.65,12.83,12.83,0,0,1-2.87-1.78,26.1,26.1,0,0,1-4.34-4.72c-.63-.83-1.21-1.75-1.77-2.53a13.11,13.11,0,0,0-1.82-2.15,2.49,2.49,0,0,0-.43-.32c-.12-.07-.19-.05-.07-.06s.2-.13.14-.05a1.79,1.79,0,0,0-.17.42,11.56,11.56,0,0,0-.21,2.78c0,2,.26,4,.5,6l.79,6.08a47,47,0,0,1,.34,6.22,3.34,3.34,0,0,1-.05.43,1.23,1.23,0,0,1-.2.58.58.58,0,0,1-.32.21.53.53,0,0,1-.37,0,1,1,0,0,1-.27-.22,3.07,3.07,0,0,1-.25-.38,13.23,13.23,0,0,1-.68-1.43,25.71,25.71,0,0,1-1.05-2.94,19.61,19.61,0,0,1-.75-6.2c0-1,.1-2.08,0-3a3.62,3.62,0,0,0-.26-1.24,1.28,1.28,0,0,0-.63-.68,5.51,5.51,0,0,0-2.42-.29c-.93,0-1.91.4-2.89.4h0l2.09-2.18c.12,2.61.19,5.16.23,7.78s.05,5.19.07,7.81v1.95a9.13,9.13,0,0,1-.12,1.95c-.24,1.31-.4,2.57-.58,3.88l-1.09,7.81h0c-.26,0-.25,0-.25-.1v-.13l0-.3-.06-.63-.12-1.25-.25-2.53-.54-5c-.37-3.35-.8-6.7-1.27-10-.24-1.66-.51-3.31-.83-4.93-.17-.8-.35-1.6-.57-2.32a3.24,3.24,0,0,0-.33-.81s0,0,.12.15a1.17,1.17,0,0,0,.47.27,1.32,1.32,0,0,0,.46.06l.24,0,.16,0h0l-.15.06a.3.3,0,0,0,.14-.05c.07,0,.05,0,.05,0a6.73,6.73,0,0,0-.4.67,9,9,0,0,1-.78,1.29,4.36,4.36,0,0,1-1.63,1.34,4.49,4.49,0,0,1-2.11.35,8.93,8.93,0,0,1-3.09-.92,21.68,21.68,0,0,1-2.43-1.38l3.16-1.57-2.32,17.12h-.71a2.57,2.57,0,0,1-1.09-2.29l-.21-2.33c-.15-1.56-.34-3.12-.55-4.66s-.48-3.07-.8-4.57a24.47,24.47,0,0,0-1.28-4.3,5.11,5.11,0,0,0-1-1.54c-.16-.14-.25-.17-.28-.17a.7.7,0,0,0-.35.14,32.37,32.37,0,0,0-3.22,3.08c-.55.57-1.1,1.16-1.75,1.74a5.19,5.19,0,0,1-2.69,1.44,3.12,3.12,0,0,1-1.85-.35,4.74,4.74,0,0,1-1.23-1,11.35,11.35,0,0,1-1.52-2.16,40,40,0,0,1-2.05-4.43c-.15-.37-.29-.71-.45-1a6.77,6.77,0,0,0-.43-.86h0l.13.1a1,1,0,0,0,.56.13,1,1,0,0,0,.48-.15,1.19,1.19,0,0,0,.18-.15l.08-.09a.6.6,0,0,0,.12-.25c0-.06,0-.08,0-.07a2.69,2.69,0,0,0,0,.41c0,.34.07.72.13,1.1.46,3,1.14,6.15,1.81,9.22,1.3,6.18,2.79,12.33,4.18,18.49l-1,.26h0c-1-3.13-2-6.25-3.06-9.31a74.55,74.55,0,0,0-3.85-8.91,18.38,18.38,0,0,0-2.57-3.84,3.63,3.63,0,0,0-1.49-1.05,1.57,1.57,0,0,0-.76,0l-1.21.14c-1.6.19-3.19.51-5,.61a8.74,8.74,0,0,1-2.84-.3,9.29,9.29,0,0,1-2.58-1.22,17.25,17.25,0,0,0-2-1.14l-1.15-.54a4.06,4.06,0,0,1-1.4-1.13,4.93,4.93,0,0,1-.77-1.46,6.38,6.38,0,0,1-.22-.66l0-.16-.06-.21-.07-.29a7.53,7.53,0,0,1-.15-3,6,6,0,0,1,1.27-2.91,4.65,4.65,0,0,1,1.31-1.15l.3-.15.21-.08.39-.13c.24-.07.48-.12.71-.17a14.27,14.27,0,0,1,5.49-.05,5.72,5.72,0,0,1,3,1.49,3.17,3.17,0,0,1,.32.39l0,0,.07.11,0,.06.08.13a7.48,7.48,0,0,1,.37.79c.18.45.31.88.44,1.3.47,1.68.82,3.3,1.11,4.94s.57,3.27.76,4.91.41,3.28.55,4.93l-.07-.29a17.07,17.07,0,0,1,.45,3.13c.11,1,.1,2,.16,2.92l.05,1.48c0,.48,0,.94,0,1.48a16.43,16.43,0,0,1-.43,3,7,7,0,0,0-.34,2.56,8.64,8.64,0,0,0,.89,2.46c.21.43.44.87.64,1.33.1.23.2.46.29.71a3.31,3.31,0,0,1,.13.41,1.51,1.51,0,0,1,.05.27s.17.24.3.39l.46.55.25.32.1.16a.81.81,0,0,1,.08.46c-1.43,1.15-.81.23-1.06.46l-.12-.08-.18-.16c-.19-.19-.35-.36-.52-.55a46.75,46.75,0,0,1-3.66-4.53,25.22,25.22,0,0,1-2.92-5.15c-.09-.24-.18-.48-.25-.73l-.22-.66-.46-1.36c-.3-.91-.59-1.83-1-2.69s-.67-1.75-1-2.62l-1.18-2.57c-.82-1.71-1.78-3.27-2.62-5.14s-1.49-3.57-2.24-5.31a45.11,45.11,0,0,0-2.47-5,26,26,0,0,0-3.23-4.44,34.23,34.23,0,0,0-8.49-6.93,19.68,19.68,0,0,0-2.36-1.15,8.4,8.4,0,0,0-1.15-.35l-1.39-.34c-.94-.24-1.84-.39-2.75-.58l-2.77-.5-2.8-.51,1.49-2.52h0a21.22,21.22,0,0,1,2.84-3.53,11,11,0,0,1,4.16-2.73,6.54,6.54,0,0,1,1.45-.29,7.87,7.87,0,0,1,1.29,0h.1a.8.8,0,0,0-.25,0,2.08,2.08,0,0,0-.33.11,2,2,0,0,0-.82.64,2.15,2.15,0,0,0-.28,1.82,2.29,2.29,0,0,0,.34.62,1.42,1.42,0,0,0,.32.29l0,0-.17-.1c-.29-.16-.63-.35-1-.57a8.31,8.31,0,0,1-2-1.76,4.84,4.84,0,0,1-1.11-3.19,5.66,5.66,0,0,1,1-2.94,10.27,10.27,0,0,1,1.66-1.88c.61-.56,1.09-.94,1.66-1.4s1.1-.87,1.68-1.29a16.55,16.55,0,0,1,4-2.32,5.44,5.44,0,0,1,3.14-.21,7.78,7.78,0,0,1,2.44,1.19l.81.53.53.37a5.79,5.79,0,0,1,.61.54A8.08,8.08,0,0,1,193,129.6a15.9,15.9,0,0,1,1.29,4.46c.12.72.2,1.44.27,2.14l.09,1,0,.44,0,.11s0-.06,0-.08l0-.11-.09-.18,0-.07.54,1c.15.27.31.53.47.78a14.4,14.4,0,0,0,1.05,1.44,7.27,7.27,0,0,0,2.43,2,3.57,3.57,0,0,0,1.28.33l1,.08c.39.05.85.1,1.21.17,1.5.27,2.85.7,4.05,1a9.91,9.91,0,0,0,3.38.27,4.52,4.52,0,0,0,.82-.13,6.12,6.12,0,0,0,.82-.2,7.23,7.23,0,0,0,.82-.28l.95-.36a14.18,14.18,0,0,1,4.67-.77,62,62,0,0,1,8.36.71c.65.07,1.3.14,1.9.16a7.43,7.43,0,0,0,1.55,0,1.16,1.16,0,0,0,.25-.07.34.34,0,0,0-.12.11l.26-.29a3.5,3.5,0,0,1,.51-.45,3.44,3.44,0,0,1,2.27-.62,5.82,5.82,0,0,1,1.5.33c1.54.56,2.6,1.1,3.81,1.51a21.5,21.5,0,0,0,3.59.92,21.88,21.88,0,0,0,3.72.27,35.33,35.33,0,0,0,3.86-.27l8.09-.81a78,78,0,0,0,7.83-1.17,34.28,34.28,0,0,0,3.67-1,24.75,24.75,0,0,0,3.4-1.54l.22-.11.21-.06,10.52-2.87-.49.33h0a44.62,44.62,0,0,0,5.38-3.05,7.64,7.64,0,0,0,1-1,2.2,2.2,0,0,0,.46-.72s0-.14-.12-.25-.12-.14-.23-.15-.26.12-.36.09a7.54,7.54,0,0,0-1.4-.14c-1,0-2.06.1-3.13.16l-1.6.1-.38,0h-.11c.36-.45-.78,1,1.06-1.07-1.92-2.67-.68-.59-1.08-1.18,0,0,0,.16,0,.16h0l.14-.17c.32-.51-.09,4.54,0,2.37l-.05,0-.06,0h-.31l-.41,0-3.21.17a33.14,33.14,0,0,1-3.37.09,6.72,6.72,0,0,1-1-.11,3.82,3.82,0,0,1-.7-.22,2.52,2.52,0,0,1-.52-.32,2.18,2.18,0,0,1-.36-.38,2.09,2.09,0,0,1-.3-.66,1.93,1.93,0,0,1,.16-1.27,2.14,2.14,0,0,1,.39-.56,3.18,3.18,0,0,1,.56-.49,7.24,7.24,0,0,1,.89-.55,24,24,0,0,1,3.2-1.37,49.78,49.78,0,0,1,6.45-1.81,32.24,32.24,0,0,1,3.42-.52,13.56,13.56,0,0,1,1.93,0,5.44,5.44,0,0,1,1.21.19l.36.08a.82.82,0,0,0,.18,0c.27,0,.34-.08,0,.07a1,1,0,0,0-.33.31c0,.07,0,0,0-.05a9,9,0,0,0-.27-2.32l-.16-.75a3,3,0,0,0-.14-.53,7.87,7.87,0,0,0-.5-1,18.49,18.49,0,0,0-1.53-2.31l-.39-.45c-.1-.1-.28-.24-.12-.12a2.14,2.14,0,0,0,.35.17l.21.06c.32.08-.3-.09-.26-.08h0l-.21-.08-.33-.17a2,2,0,0,1-.34-.25,3.57,3.57,0,0,1-.72-.79,9.63,9.63,0,0,1-.55-.86c-.59-1-1.07-1.88-1.6-2.71a12.22,12.22,0,0,0-1.57-2.06,2.25,2.25,0,0,0-.46-.37.74.74,0,0,0,.48,0l0,0h0v0h0l.07-.06-.29.27-.08.1a2.22,2.22,0,0,0-.38.65,11.43,11.43,0,0,0-.41,2.54,10.1,10.1,0,0,1-.46,2.11,6.94,6.94,0,0,1-1.28,2.21,9.52,9.52,0,0,1-3.59,2.4,13.79,13.79,0,0,1-1.91.63,6.62,6.62,0,0,1-2.58.16,3.92,3.92,0,0,1-2-.92,3.32,3.32,0,0,1-.88-1.3,3,3,0,0,1-.19-1.1,2.92,2.92,0,0,1,.08-.59,2.72,2.72,0,0,1,.22-.56,2.55,2.55,0,0,1,1.11-1.08,2.62,2.62,0,0,1,2.3.08,2.46,2.46,0,0,1,.74.66,2.49,2.49,0,0,1,.32.55,2.89,2.89,0,0,1,.22.76v.11l0,.2v.15a2,2,0,0,1,0,.42,2.57,2.57,0,0,1-1.29,2,2.71,2.71,0,0,1-1.39.37,4.21,4.21,0,0,1-.87-.1l-.4-.09c-.41-.1-.51,0-.29-.11a.71.71,0,0,0,.24-.18c0-.06,0,0,0,0a3.15,3.15,0,0,0-.24.88,9,9,0,0,0-.34,1.34c-.06,2.14.52,4.28-.48,6.43h0v0H265l4,.3a2.22,2.22,0,0,1-.2.67,3.51,3.51,0,0,1-.18.34,3.21,3.21,0,0,1-.37.47,3.65,3.65,0,0,1-.7.57,5.68,5.68,0,0,1-1.22.57,9,9,0,0,1-2.09.4c-.33,0-.65,0-1,0l-.8,0-.69.06-.77.1a61.41,61.41,0,0,0-6.5,1.38l-6.6,1.77-1.63.47c-.55.16-1.12.29-1.65.47-1.07.34-2.15.7-3.21,1.14h0l4.17-3.59,4.2-3.57c1.41-1.19,2.8-2.4,4.25-3.57A25.75,25.75,0,0,1,256.3,126a11.7,11.7,0,0,1,1.32-.74,4.25,4.25,0,0,1,.9-.31l.35-.05h-.08s0,0-.09,0a.64.64,0,0,0-.18.06l-.12.07,0,0s0,0,0,0a6.42,6.42,0,0,0,.51-1c.18-.39.35-.79.52-1.21l1-2.52c.66-1.71,1.33-3.44,2.09-5.14a34.74,34.74,0,0,1,2.64-5.09,12.08,12.08,0,0,1,2-2.46,5,5,0,0,1,1.78-1,4.13,4.13,0,0,1,.63-.13l.34,0h.16a2.47,2.47,0,0,0,.38,0,4.38,4.38,0,0,0,3.1-2.11c.41-1,.06-2.25-.88-3.75-.23-.4-.42-.68-.65-1a10,10,0,0,0-.73-.93,6.78,6.78,0,0,0-1.7-1.39c-.64-.37-1.47-.64-2.51-1.23a9.24,9.24,0,0,1-1.32-1c-.32-.28-.65-.56-1-.82a7.4,7.4,0,0,0-3.94-1.86,2.2,2.2,0,0,0-.78.13.67.67,0,0,0-.18.07l0,0c.07,0,0,0,0,0l-.15.08-.19.12-.22.15a11.41,11.41,0,0,0-1.76,1.61,13.6,13.6,0,0,0-2.61,4.12,4.24,4.24,0,0,0,.07,3.86l.11.16.06.16a19.12,19.12,0,0,1,.78,3.11,22.76,22.76,0,0,1,.29,3.09,20.81,20.81,0,0,1-.74,6.18,20.53,20.53,0,0,1-2.57,5.68,2.42,2.42,0,0,1-.14.21l-.11.15-.21.29-.43.59c-.26.38-.62.79-1,1.2a25.22,25.22,0,0,1-2.14,2.23,27.87,27.87,0,0,1-4.9,3.63,31.4,31.4,0,0,1-5.51,2.57,12.84,12.84,0,0,1-3.16.74l-2.76.45c-1.93.3-3.88.56-5.84.74a70.63,70.63,0,0,1-11.82.2,42.36,42.36,0,0,1-11.74-2.39,28.9,28.9,0,0,1-2.8-1.22c-.91-.45-1.84-1-2.64-1.5a36,36,0,0,1-4.91-3.58,19.09,19.09,0,0,1-4.11-4.88,10.68,10.68,0,0,1-1.2-3.29,8.49,8.49,0,0,1-.11-1.9,7,7,0,0,1,.13-1c0-.17.08-.34.13-.52a4.22,4.22,0,0,1,.25-.65v0l-.19.53c.2-.88.42-1.64.68-2.45s.53-1.58.85-2.36a17.86,17.86,0,0,1,2.62-4.63,7.72,7.72,0,0,1,2.48-2,6,6,0,0,1,.87-.33c.17,0,.27-.08.51-.12l.29,0a8.23,8.23,0,0,1,1.61-.07,14.37,14.37,0,0,1,2.7.44c.84.21,1.61.45,2.37.68a27.94,27.94,0,0,0,4.26,1.07,8,8,0,0,0,1.88.06,5.43,5.43,0,0,0,1.62-.41c1.43-.65,2.87-1.27,4.3-1.94l2.15-1,1.08-.5.27-.12.13-.06.07,0,0,0-.12.06h0l.07,0s0,0,0,0-.11.08-.08,0l.31-.23-.39.35a8.74,8.74,0,0,0,1.42-2.52,2.44,2.44,0,0,0,0-2A3.24,3.24,0,0,0,218,94c-.25-.08-.42-.15-.74-.24l-.86-.24c-.55-.16-1.12-.3-1.68-.43a14,14,0,0,0-6.31-.27,5.17,5.17,0,0,0-3.66,3.63,18,18,0,0,0-.72,6.48,13.45,13.45,0,0,0,1.73,6.08c2.08,3.68,6.16,6.15,10.46,7.3.54.14,1.08.26,1.6.35a5.36,5.36,0,0,0,.63.07l.92,0c1.18,0,2.35,0,3.52-.07a39.7,39.7,0,0,0,6.9-1c4.48-1.06,8.72-3.09,11.63-6.37a16.46,16.46,0,0,0,3.29-5.62,22,22,0,0,0,1.18-6.61c.14-2.25-.35-4.2-1.4-4.69A4.39,4.39,0,0,0,242,92a14.39,14.39,0,0,0-1.6.21l-.9.17-.54.1a5,5,0,0,1-.87.07h0l.63-.08a9.14,9.14,0,0,0-2.43.33c-.79.17-1.59.3-2.39.43a39.27,39.27,0,0,1-4.91.47,23.1,23.1,0,0,1-5.1-.37,9.33,9.33,0,0,1-2.79-1,5.24,5.24,0,0,1-2.41-2.85,5.91,5.91,0,0,1,0-3.55,6.74,6.74,0,0,1,.25-.72l.07-.17,0-.09.08-.16.12-.27.07-.13.12-.21.26-.43a5.37,5.37,0,0,1,.57-.71,5.51,5.51,0,0,1,3.33-1.7,9.14,9.14,0,0,1,3.1.18,34.7,34.7,0,0,1,4.7,1.59l.46.16.19,0,.08,0h0s.15,0-.08,0l.57.09.29,0h.48l.41,0a5.6,5.6,0,0,0,.82-.13,6.22,6.22,0,0,0,1.57-.63,7.34,7.34,0,0,0,1.38-1,7.52,7.52,0,0,0,2-2.83,6.93,6.93,0,0,0-1.93-7.07,9.25,9.25,0,0,0-3.81-2.14c-.36-.11-.73-.2-1.14-.3a4.75,4.75,0,0,1-.68-.24l-.18-.13c-.21,0-.27-.77,0-.93a.85.85,0,0,1,.3-.13l.13,0h.37a21,21,0,0,1,2.44.23A45.22,45.22,0,0,1,240,69a18.37,18.37,0,0,1,4.8,1.81,10.45,10.45,0,0,1,4,4,9.41,9.41,0,0,1,.62,1.41c.08.25.16.5.22.76l.08.32.06.29c.07.41.15.72.23,1s.17.66.27,1a8,8,0,0,0,1.57,3.1,2.55,2.55,0,0,0,3.09.53l.16-.1.21-.13c.2-.06-.14-.07.85-.3,3.87,4.61.58,2.25,1.54,3a2.71,2.71,0,0,1-.33.34l-.24.23c-.62.55-1.21,1.06-1.81,1.57q-1.81,1.53-3.64,3c-1.23,1-2.46,2-3.74,2.92a24.33,24.33,0,0,1-2.09,1.43l-.4.2-.31.13a1.66,1.66,0,0,0-.2.13,9.43,9.43,0,0,0-.79.63c-2.2,2-4.32,4.36-6.54,6.57-1.1,1.13-2.36,2.21-3.4,3.24a33.26,33.26,0,0,1-3.6,3.23,17.63,17.63,0,0,1-4.38,2.35,32.55,32.55,0,0,1-4.72,1.26c-.79.12-1.58.3-2.38.38l-1.2.14-.18,0h-.53l-.69,0a31.88,31.88,0,0,1-4.74-1.18c-1.5-.46-3-.91-4.45-1.24a14.34,14.34,0,0,0-4.17-.48,2.23,2.23,0,0,0-1.27.44,1,1,0,0,0-.24.34l-.34.94a28.3,28.3,0,0,0-1.18,4.11,4.4,4.4,0,0,0-.09,1.34c0,.07-.06,0-.09,0s0,0,.05.06l0,0c.19,0,.09,0,.15,0l.07,0,.38.14a10.61,10.61,0,0,1,1.26.62l1,.62,2,1.18a43.13,43.13,0,0,0,8.27,3.75,25.11,25.11,0,0,0,4.31,1,20,20,0,0,0,2.17.15c.75,0,1.36-.08,2.33-.09a6.29,6.29,0,0,1,1.45.14,3.18,3.18,0,0,1,1.68.9,2.85,2.85,0,0,1,.72,1.93,5.81,5.81,0,0,1-.24,1.49c-.52,1.71-1.28,3.06-1.8,4.44a6.31,6.31,0,0,0-.48,1.86c0,.53.05.66.46.94a3.37,3.37,0,0,0,.82.3c.38.08.73.13,1.17.25a11,11,0,0,1,2.42.92,11.88,11.88,0,0,1,3.83,3.26,37.72,37.72,0,0,1,2.62,4,16.31,16.31,0,0,0,1.23,1.81,3.77,3.77,0,0,0,.67.66,2.91,2.91,0,0,0,.8.42c1.47.62,2.86,1.25,4.29,1.78a34.7,34.7,0,0,0,8.81,2c1.5.16,3,.18,4.58.21s3.1,0,4.64,0c3.1,0,6.19-.15,9.23-.46a30.24,30.24,0,0,0,4.39-.72c.35-.08.65-.2,1-.3s.72-.28,1.13-.42l2.21-.74a4.84,4.84,0,0,0,2.88-2,5.28,5.28,0,0,0,.59-1.68c.07-.31.13-.74.21-1.14l.25-1.2a16.67,16.67,0,0,1,1.8-4.92,5.81,5.81,0,0,1,1-1.27,4.06,4.06,0,0,1,1.84-1,3.91,3.91,0,0,1,2.17.18,5.36,5.36,0,0,1,1.5.85,8.51,8.51,0,0,0,3.55,1.74,13.79,13.79,0,0,1,1.31.45,4.52,4.52,0,0,1,1.65,1.13,4.43,4.43,0,0,1,1,1.92,4.93,4.93,0,0,1,.19,1.66h-4c0-1-.11-1-.1-.93s0-.09-.26-.2-.54-.22-.9-.34a15.72,15.72,0,0,1-2.45-1,10.8,10.8,0,0,1-1.21-.73c-.19-.13-.41-.31-.6-.45l-.43-.36a2.08,2.08,0,0,0-.5-.34c-.12-.05-.13,0-.13-.06s-.33.15-.64.64a13.34,13.34,0,0,0-1.5,3.8l-.27,1.08c-.08.37-.14.7-.25,1.16a8.42,8.42,0,0,1-1.06,2.67,6.73,6.73,0,0,1-2.14,2.14,11.73,11.73,0,0,1-2.47,1.1l-2.24.69c-.33.09-.73.24-1.07.36s-.88.28-1.29.36a33.6,33.6,0,0,1-4.85.67c-3.19.23-6.34.25-9.48.2-1.58,0-3.14-.06-4.72-.13s-3.15-.13-4.75-.33a36,36,0,0,1-9.33-2.37c-1.49-.58-2.93-1.27-4.32-1.9a5,5,0,0,1-1.24-.7,5.68,5.68,0,0,1-1-1,16.41,16.41,0,0,1-1.36-2.08,36.33,36.33,0,0,0-2.4-3.87,9.63,9.63,0,0,0-3.18-2.83,6.62,6.62,0,0,0-2-.63c-.32-.06-.75-.1-1.13-.14a5,5,0,0,1-1.42-.37,2.84,2.84,0,0,1-1.35-1.15,3.33,3.33,0,0,1-.47-1.68,7.73,7.73,0,0,1,.55-2.68c.55-1.55,1.27-3,1.62-4.27a2.63,2.63,0,0,0,.11-.81c0-.21,0-.23,0-.22a2.47,2.47,0,0,0-1.25-.19c-.59,0-1.52.14-2.34.13a18.86,18.86,0,0,1-2.5-.12,27.67,27.67,0,0,1-4.82-1,60.09,60.09,0,0,1-8.88-3.69l-2.11-1-1-.45c-.32-.13-.71-.28-.88-.33l-.18,0-.3-.06a3.76,3.76,0,0,1-1-.41,3.5,3.5,0,0,1-1.51-1.82,6.21,6.21,0,0,1-.17-3.29,20.69,20.69,0,0,1,1.68-4.78l.26-.55.12-.26.21-.4a4.28,4.28,0,0,1,1.27-1.41,5.45,5.45,0,0,1,3.14-.91,17,17,0,0,1,5,.94c1.55.49,3,1,4.49,1.54a26.82,26.82,0,0,0,4.29,1.24l.48.07h.45l1.13-.06c.76,0,1.51-.14,2.26-.22a17,17,0,0,0,8.08-3.35,31.61,31.61,0,0,0,3.26-3.12c1.14-1.19,2.23-2.18,3.28-3.32,2.13-2.25,4.09-4.62,6.42-6.93a9.91,9.91,0,0,1,1-.87,4.08,4.08,0,0,1,.78-.5l.15-.06s.15-.06.11,0h0l.12-.07c.5-.32,1.13-.83,1.71-1.29,1.18-1,2.35-2,3.51-3s2.31-2.06,3.45-3.11c.56-.52,1.13-1.05,1.65-1.57l.19-.18.07-.08c1,.72-2.24-1.7,1.59,2.89.95-.22.57-.2.73-.23h0l-.06,0-.33.23a6.1,6.1,0,0,1-1.48.71,6.55,6.55,0,0,1-3.27.25,6.73,6.73,0,0,1-3-1.37,10.74,10.74,0,0,1-3.28-4.77,12.57,12.57,0,0,1-.42-1.27c-.12-.46-.23-.9-.31-1.26L245,78c0-.12-.06-.25-.09-.37a5.1,5.1,0,0,0-.28-.74A9.82,9.82,0,0,0,242.43,74a19.41,19.41,0,0,0-7.57-4.47,10.88,10.88,0,0,0-2.18-.46h-.23a.65.65,0,0,0,.16-.08c.26-.13.23-.87,0-.81,0,0-.08-.06,0,0a2.33,2.33,0,0,0,.42.15c.34.1.74.18,1.13.29a17.23,17.23,0,0,1,4.63,1.76,9.45,9.45,0,0,1,3.69,3.8,8.87,8.87,0,0,1,.87,2.68,10.23,10.23,0,0,1,.13,1.51l0,.61v.22a.76.76,0,0,1,0,.17l-.05.37a9.21,9.21,0,0,1-2.52,5.24,10.73,10.73,0,0,1-5.09,2.9,10.52,10.52,0,0,1-1.49.24l-.75,0c-.28,0-.57,0-.85,0l-.42,0L232,88l-.58-.1a1.05,1.05,0,0,1-.23,0l-.1,0-.2-.06-.37-.11-.64-.23a39.91,39.91,0,0,0-4.12-1.52,4.85,4.85,0,0,0-1.54-.18,1.18,1.18,0,0,0-.78.33,1.62,1.62,0,0,0-.17.19.18.18,0,0,1-.05.07l0,0-.07.13-.13.26s.05-.13,0,0l0,0,0,.09q-.09.21-.15.39a1.93,1.93,0,0,0-.14,1.05,1.13,1.13,0,0,0,.55.63,5.28,5.28,0,0,0,1.59.61,17.46,17.46,0,0,0,4.2.41,37.08,37.08,0,0,0,4.41-.32c.74-.11,1.49-.21,2.23-.35a5.4,5.4,0,0,0,2.13-.65l.64-.06h0c-.12,0-.07,0,0,0l.37-.06.9-.17a20.17,20.17,0,0,1,2-.27,8.24,8.24,0,0,1,4.69.87,6.09,6.09,0,0,1,2,1.83,7.16,7.16,0,0,1,1,2.26,13.49,13.49,0,0,1,.41,4.27,26.33,26.33,0,0,1-1.41,7.79,20.73,20.73,0,0,1-4.09,7,22.45,22.45,0,0,1-6.35,4.89,31,31,0,0,1-7.34,2.7,42.84,42.84,0,0,1-7.61,1.1c-1.27.07-2.55.1-3.82.07l-.92,0a7.43,7.43,0,0,1-1.19-.12,20,20,0,0,1-2-.42,24.34,24.34,0,0,1-7.29-3.26,18,18,0,0,1-5.64-5.93,17.35,17.35,0,0,1-2.26-7.9,26.19,26.19,0,0,1,.09-4,17.53,17.53,0,0,1,.86-4.06,10.21,10.21,0,0,1,2.35-3.86,8.87,8.87,0,0,1,4.07-2.31,17.57,17.57,0,0,1,8.23.24c.63.14,1.25.3,1.88.47l.91.26c.26.07.67.22,1,.33a9.75,9.75,0,0,1,2.1,1.08,6.2,6.2,0,0,1,1.83,2,5.74,5.74,0,0,1,.67,2.73,7.51,7.51,0,0,1-.43,2.44,11.3,11.3,0,0,1-.92,2,13.67,13.67,0,0,1-1.24,1.82l-.12.14-.27.21-.17.12a2.58,2.58,0,0,1-.31.22l-.19.11-.19.1-.07,0-.13.06-.27.12-1.07.5-2.13,1c-1.42.67-2.87,1.29-4.3,1.93a10.32,10.32,0,0,1-5.75.7,32.23,32.23,0,0,1-4.88-1.21,19.09,19.09,0,0,0-4.11-1,2.94,2.94,0,0,0-.42,0l-.32,0-.29,0-.07,0c-.07,0-.15.06-.23.08a3.78,3.78,0,0,0-1.13,1,13.9,13.9,0,0,0-2,3.56c-.28.67-.52,1.37-.75,2.07s-.43,1.45-.58,2.1l-.2.52h0c.05-.11,0,0,0,0a.75.75,0,0,0-.07.18,3.72,3.72,0,0,0-.1.42,4.14,4.14,0,0,0,0,1,6.9,6.9,0,0,0,.64,2.18,14.25,14.25,0,0,0,3.14,4.11,32.94,32.94,0,0,0,4.32,3.44,24.9,24.9,0,0,0,4.85,2.59,32.05,32.05,0,0,0,5.33,1.57,43.12,43.12,0,0,0,5.57.76,68.49,68.49,0,0,0,11.36-.21q2.84-.27,5.67-.72l1.42-.23.72-.12c.25,0,.44-.08.83-.13a9.94,9.94,0,0,0,2.47-.6,26.41,26.41,0,0,0,9.36-5.66,21.12,21.12,0,0,0,1.85-2,12.5,12.5,0,0,0,.85-1.07l.42-.59.21-.3.1-.14s.05-.07.06-.1a17.26,17.26,0,0,0,2.16-4.87,17.86,17.86,0,0,0,.58-5.31,18.46,18.46,0,0,0-.28-2.67,15.58,15.58,0,0,0-.64-2.51l.16.31a6.29,6.29,0,0,1-1.06-3.44,9.42,9.42,0,0,1,.59-3.24,16.7,16.7,0,0,1,3.17-5.17,14.31,14.31,0,0,1,2.27-2.1l.35-.24.4-.25.15-.08.12-.07.11,0,.45-.19a5.35,5.35,0,0,1,1.92-.33,7.67,7.67,0,0,1,3.34.87,15.3,15.3,0,0,1,2.59,1.66c.77.58,1.57,1.4,2,1.62s1.46.64,2.42,1.18a9.79,9.79,0,0,1,2.55,2,13.76,13.76,0,0,1,1,1.23c.29.41.6.9.83,1.29l.34.6.08.15.11.22.18.36a8,8,0,0,1,.57,1.6,5.91,5.91,0,0,1-.22,3.72,6.37,6.37,0,0,1-2.38,2.79,8.9,8.9,0,0,1-3.11,1.3,6.09,6.09,0,0,1-1,.12h-.39s.08,0,.06,0a1.76,1.76,0,0,0-.51.36,9,9,0,0,0-1.43,1.77,43.63,43.63,0,0,0-2.51,4.6L263,121.46c-.38.83-.77,1.67-1.19,2.51-.21.42-.42.84-.66,1.27a8.26,8.26,0,0,1-.92,1.39l-.22.23a1.77,1.77,0,0,1-.17.13l-.1.07,0,0-.11.06-.25.1-.18,0,0,.14-.21.15h0s0-.14,0-.14a.92.92,0,0,0-.4,0,9.4,9.4,0,0,0-1.13.47c-.78.39-1.57.8-2.36,1.24-1.59.88-3.1,1.81-4.63,2.81-3,2-5.9,4.13-8.9,6.36h-.06a30.89,30.89,0,0,1,2.91-1.82c.5-.3,1-.54,1.5-.81s1-.51,1.55-.77c2.05-1,4.11-2,6.22-2.91,1.06-.46,2.12-.91,3.21-1.34a35.33,35.33,0,0,1,3.38-1.16c.3-.08.58-.16.91-.23s.69-.14,1-.18.51-.08.9-.11.5,0,.74-.09a7.82,7.82,0,0,0,1.25-.28,1.84,1.84,0,0,0,.33-.15l0,0a.73.73,0,0,0-.1.14,1,1,0,0,0-.08.15,1.38,1.38,0,0,0-.13.45l4,.28h-4.49c0-2.15.06-4.29,0-6.43a16.48,16.48,0,0,1,.16-1.87,8.15,8.15,0,0,1,.58-2.24,5.1,5.1,0,0,1,.86-1.32,4,4,0,0,1,1.57-1.08,5.07,5.07,0,0,1,2.88-.17l.4.07h-.08a1.86,1.86,0,0,0-1,.28,2.22,2.22,0,0,0-1.09,1.65,1.69,1.69,0,0,0,0,.32V119a1.48,1.48,0,0,0,.11.37,1.89,1.89,0,0,0,.27.46,2.37,2.37,0,0,0,.71.63,2.57,2.57,0,0,0,2.26.07,2.42,2.42,0,0,0,1.07-1,1.87,1.87,0,0,0,.2-.51,2,2,0,0,0,.07-.49,1.78,1.78,0,0,0-.11-.71,1.62,1.62,0,0,0-.42-.64,1.28,1.28,0,0,0-.54-.31,4.32,4.32,0,0,0,.61-.12c.35-.1.75-.26,1.13-.41a4.65,4.65,0,0,0,1.73-1.1,2.78,2.78,0,0,0,.5-1.61,13.84,13.84,0,0,1,.69-3.77,7.26,7.26,0,0,1,1.23-2.12c.15-.17.32-.36.46-.5l.28-.28.21-.18.14-.12.31-.23a4.65,4.65,0,0,1,2.57-.83,4.7,4.7,0,0,1,1.75.35,6.55,6.55,0,0,1,2.16,1.46,15.9,15.9,0,0,1,2.32,3c.6,1,1.14,2,1.62,2.85a5.42,5.42,0,0,0,.31.5s.1.09-.2-.18l-.27-.19-.29-.14-.16-.06h0l-.21-.06a1.71,1.71,0,0,1,.3.09,3.29,3.29,0,0,1,.71.35,5.58,5.58,0,0,1,1.08,1c.24.26.45.52.65.77a19.63,19.63,0,0,1,2,3.09,12.35,12.35,0,0,1,.8,1.87,8.36,8.36,0,0,1,.24,1l.15.83a11.4,11.4,0,0,1,.16,4.06,4.71,4.71,0,0,1-.52,1.48,3.86,3.86,0,0,1-1.42,1.45,3.93,3.93,0,0,1-1.76.52,5.87,5.87,0,0,1-1.37-.08l-.61-.14-.41-.12a1.63,1.63,0,0,0-.38-.08,7.28,7.28,0,0,0-1.28-.06,28.37,28.37,0,0,0-3,.25,50.68,50.68,0,0,0-6.06,1.19,21.05,21.05,0,0,0-2.81.9,4,4,0,0,0-.5.24c-.07,0-.08.05-.06,0a.7.7,0,0,0,.15-.23,1.38,1.38,0,0,0,.09-.88,1.12,1.12,0,0,0-.22-.48.84.84,0,0,0-.22-.24.71.71,0,0,0-.18-.11c-.06,0,0,0,.07,0a4,4,0,0,0,.57.12c.9.13,2,.14,3.06.18l3.21.11h.75c0-2.16-.32,3,0,2.45h-.19c-.42-.59.8,1.32-1.13-1.36,1.86-2.09.73-.62,1.11-1.07h.66l1.62,0c1.07,0,2.13,0,3.3.13a9.27,9.27,0,0,1,1.78.34c.15,0,.26.24.4.35s.31.13.48.22a1.86,1.86,0,0,1,.88,1,2.1,2.1,0,0,1,0,1.33,4,4,0,0,1-.41,1,9.43,9.43,0,0,1-1.06,1.49A40.68,40.68,0,0,1,285,140.8h0l-.22.14-.26.07L274,144l.43-.18a28.81,28.81,0,0,1-4,1.81,37.45,37.45,0,0,1-4.16,1.17A78.18,78.18,0,0,1,258,148l-8.11.82a40.55,40.55,0,0,1-4.25.29,26,26,0,0,1-4.39-.33,25.1,25.1,0,0,1-4.28-1.09c-1.36-.47-2.74-1.13-3.76-1.5a1.89,1.89,0,0,0-.48-.12.68.68,0,0,0,.35-.13s.15-.15.12-.12l-.08.1-.05,0,0,0,.07-.08a3.53,3.53,0,0,1-.88.78,4.79,4.79,0,0,1-1.64.63,11.14,11.14,0,0,1-2.51.13c-.75,0-1.46-.11-2.16-.19a60.18,60.18,0,0,0-7.83-.69,11,11,0,0,0-3.34.51l-.94.37a10.32,10.32,0,0,1-1.11.37,8.94,8.94,0,0,1-1.16.29,7.76,7.76,0,0,1-1.19.18,14,14,0,0,1-4.69-.34c-1.44-.33-2.69-.73-3.86-.93-.3-.06-.53-.08-.8-.12l-1-.08a7.52,7.52,0,0,1-2.64-.69,11.11,11.11,0,0,1-3.86-3.07,17.13,17.13,0,0,1-1.35-1.85c-.2-.31-.39-.63-.57-1l-.46-.82-.1-.18a2.56,2.56,0,0,1-.11-.24.67.67,0,0,1-.06-.17,2.18,2.18,0,0,1-.08-.33c0-.16,0-.28-.06-.39l-.06-.57-.09-1c-.06-.65-.14-1.28-.23-1.89a12.61,12.61,0,0,0-.94-3.34,4.37,4.37,0,0,0-.76-1.12l-.15-.14s-.32-.23-.29-.21l-.89-.58a4.72,4.72,0,0,0-1.18-.65,1.45,1.45,0,0,0-.86.11,13.13,13.13,0,0,0-3,1.76c-.51.38-1,.78-1.54,1.19s-1.07.87-1.46,1.22a3.75,3.75,0,0,0-1.38,2,.84.84,0,0,0,.23.56,4.51,4.51,0,0,0,1.05.87c.23.15.48.29.78.46l.27.16.2.12a2.65,2.65,0,0,1,.51.46,2,2,0,0,1,.38.67,2,2,0,0,1-1.16,2.55,2.66,2.66,0,0,1-.39.12,4.06,4.06,0,0,1-.5.06l-.41,0a6.2,6.2,0,0,0-.74,0,3.61,3.61,0,0,0-.68.12c-1.64.52-2.95,2.62-4.95,4.54h0l-1.16-3,2.9.74c.94.28,2,.53,2.85.81l1.39.42a10.84,10.84,0,0,1,1.57.59,22.21,22.21,0,0,1,2.72,1.52,34.83,34.83,0,0,1,4.72,3.7,39,39,0,0,1,4.1,4.32,29,29,0,0,1,3.29,5,47.25,47.25,0,0,1,2.4,5.36c.7,1.8,1.33,3.62,2,5.34s1.66,3.39,2.46,5.15l1.14,2.68c.36.9.68,1.83,1,2.74s.61,1.83.91,2.74l.43,1.37.22.69c.06.22.13.43.21.64a23.33,23.33,0,0,0,2.67,4.85,46.46,46.46,0,0,0,3.47,4.44l.47.5.09.09-.05,0c-.25.25.38-.66-1,.48a.8.8,0,0,0,0,.42c0,.07,0,0,0,0l-.2-.24-.46-.56a3.13,3.13,0,0,1-.53-.77c-.1-.31-.08-.33-.11-.42a1.8,1.8,0,0,0-.09-.28,5.32,5.32,0,0,0-.26-.61c-.19-.42-.39-.83-.62-1.26a10.14,10.14,0,0,1-1.15-2.87,9.3,9.3,0,0,1,.19-3.13,13.59,13.59,0,0,0,.19-2.69c0-.42,0-.91-.09-1.38l-.17-1.39c-.13-.93-.21-1.89-.39-2.79l-.24-1.36-.15-.64-.08-.32-.06-.2,0-.15,0-.14-.81-4.82c-.3-1.6-.54-3.21-.86-4.8s-.6-3.18-1-4.66c-.11-.36-.22-.72-.34-1l-.14-.34-.08-.13,0-.06v0l0,.06h0s0-.06-.07-.08a2.93,2.93,0,0,0-1.42-.65,11.42,11.42,0,0,0-4.28,0l-.49.11-.2.07-.07,0h0a2.26,2.26,0,0,0-.53.46,3.24,3.24,0,0,0-.69,1.54,4.79,4.79,0,0,0,.06,1.88,5.53,5.53,0,0,0,.63,1.76,1.22,1.22,0,0,0,.5.39l1.07.53a19,19,0,0,1,2.26,1.36,6.08,6.08,0,0,0,3.86,1.19c1.48,0,3.13-.3,4.79-.46l1.24-.11a4.69,4.69,0,0,1,.75,0,3.12,3.12,0,0,1,.93.15,5.79,5.79,0,0,1,2.46,1.78,20.35,20.35,0,0,1,2.75,4.42,67.59,67.59,0,0,1,3.53,9.33c1,3.16,1.55,6.34,2.55,9.56h0l-1,.26c-1.77-6.08-3.4-12.19-5-18.33l-1.1-4.63c-.35-1.56-.69-3.1-1-4.71-.07-.4-.13-.81-.17-1.25a3.91,3.91,0,0,1,0-.78,2.4,2.4,0,0,1,.06-.36,1.27,1.27,0,0,1,.2-.38.64.64,0,0,1,.1-.13,1,1,0,0,1,.2-.16,1.09,1.09,0,0,1,.55-.18,1.19,1.19,0,0,1,.69.17,1.25,1.25,0,0,1,.25.2,1.9,1.9,0,0,1,.21.23,8.55,8.55,0,0,1,.69,1.23c.17.37.35.76.5,1.12a35.81,35.81,0,0,0,2,4.12,9.44,9.44,0,0,0,1.23,1.69,2.68,2.68,0,0,0,.62.49.68.68,0,0,0,.44.08,3.07,3.07,0,0,0,1.37-.86A22.29,22.29,0,0,0,226,169.5a31,31,0,0,1,3.62-3.47,3.06,3.06,0,0,1,1.87-.57,3,3,0,0,1,1.83.79,7.11,7.11,0,0,1,1.61,2.41,25.71,25.71,0,0,1,1.44,4.77c.35,1.59.61,3.18.84,4.77s.4,3.17.55,4.76l.37,2.39c.07.79.4,1.59-.6,2.44h-.89l-1-17.25-.27-4.11,3.37,2.54a18.73,18.73,0,0,0,1.87,1.27,5.88,5.88,0,0,0,1.67.71c.43,0,.34.11.71-.22a8.67,8.67,0,0,0,.59-.83,6.18,6.18,0,0,1,1.08-1.38,2.82,2.82,0,0,1,.56-.39,2.12,2.12,0,0,1,.41-.19l.15,0,.21-.06.32,0a1.7,1.7,0,0,1,.61.09,1.86,1.86,0,0,1,.74.43,2.52,2.52,0,0,1,.49.66,6.48,6.48,0,0,1,.52,1.57,26.74,26.74,0,0,1,.41,2.65c.2,1.73.32,3.43.42,5.13.2,3.4.28,6.79.34,10.18l-.12,5.08-.17,2.54v2.38c0,.06.37.07.12.07h0l-1.34-7.77c-.23-1.31-.43-2.59-.72-3.89a9.84,9.84,0,0,1-.19-1.95l0-1.95c-.07-2.62-.17-5.23-.2-7.84s-.06-5.23,0-7.85l0-2.05,2.07.3h0a11.33,11.33,0,0,1,3.22.69,12.2,12.2,0,0,1,1.65.54,5.69,5.69,0,0,1,1.64,1,3.66,3.66,0,0,1,1,1.83,5.4,5.4,0,0,1,0,1.79c-.14,1.1-.37,2.07-.51,3.07a14.52,14.52,0,0,0,.19,6,12.82,12.82,0,0,0,1.1,2.81,14.45,14.45,0,0,0,.77,1.28,1.64,1.64,0,0,0,.21.23l0,0a.28.28,0,0,0-.18,0,.37.37,0,0,0-.18.1c0,.08,0-.07,0-.16s0-.22,0-.33c-.22-2-.77-4-1.12-6s-.66-4.05-.95-6.09-.53-4.1-.61-6.21a13.39,13.39,0,0,1,.22-3.34,3.79,3.79,0,0,1,.4-1,1.9,1.9,0,0,1,1.32-.94,2.26,2.26,0,0,1,1.4.27,4.52,4.52,0,0,1,.82.57,32.88,32.88,0,0,1,4,5,24.28,24.28,0,0,0,4,4.25,7.1,7.1,0,0,0,4.76,1.89,3.67,3.67,0,0,0,2.11-.89,3.73,3.73,0,0,0,.39-.41,1.07,1.07,0,0,0,.13-.19s.06-.15,0,0a.78.78,0,0,0,0,.19,1,1,0,0,0,.17.57,1.16,1.16,0,0,0,.95.55,1.13,1.13,0,0,0,.4-.07c.22-.1.17-.1.18-.1l-.14.15c-.14.15-.26.32-.42.53a9.88,9.88,0,0,0-1.48,2.36c-.37.87-.74,1.87-1.12,2.82-.75,1.92-1.58,3.8-2.38,5.69q-2.46,5.66-5.06,11.23h0l-2.9,6.72.71-7.32c.48-5,1.14-9.91,2-14.83.47-2.46,1-4.91,1.67-7.35a37.52,37.52,0,0,1,2.66-7.27,9.63,9.63,0,0,1,2.77-3.47,4.15,4.15,0,0,1,2.81-.78,4.3,4.3,0,0,1,1.51.43l.5.27.39.23a42.7,42.7,0,0,0,6.35,3.24A14.47,14.47,0,0,0,291,166.4a8.22,8.22,0,0,0,2.91-.9l.87-.42c.16-.08.34-.15.54-.23a5.27,5.27,0,0,1,.75-.21l.23,0,.11,0h.18a.93.93,0,0,0-.28.13c-.21.17-.22.32-.18.25a2,2,0,0,0,.11-1.07,7.34,7.34,0,0,0-.34-1.48,6.23,6.23,0,0,0-.6-1.32,2.26,2.26,0,0,0-.24-.32s0,0,.06.05l.09,0a.93.93,0,0,0,.33.07h.08a3.66,3.66,0,0,1-.47,0,9.49,9.49,0,0,1-1.13-.19,5.91,5.91,0,0,0-.73-.11,3.5,3.5,0,0,0-1.25.11,7.17,7.17,0,0,0-2.56,1.49,18.31,18.31,0,0,0-2.37,2.44c-.38.46-.72.9-1.08,1.38l-.53.72c-.13.2-.27.42-.41.66a52.91,52.91,0,0,0-2.9,6.54c-1.75,4.56-3.29,9.24-4.72,13.94-.71,2.35-1.39,4.71-2,7.08-.3,1.17-.59,2.37-.82,3.5l-.17.89a7.5,7.5,0,0,1-.35,1.23,7.19,7.19,0,0,1-1.28,2.08,11.52,11.52,0,0,1-3.48,2.62,23.43,23.43,0,0,1-3.74,1.48,44,44,0,0,1-7.59,1.52c-1.28.16-2.57.22-3.78.31l-3.71.25-7.46.48c-1.25.09-2.49.15-3.72.21l-.93,0h-.53l-.53,0c-.72,0-1.29-.1-1.94-.15l-7.4-.71c-2.46-.23-4.89-.45-7.36-.64l-1.85-.13-.91-.07-1-.09a36.22,36.22,0,0,1-3.86-.55,33,33,0,0,1-7.46-2.41c-2.37-1.07-4.6-2.47-6.61-3.52l-.91-.46a6.89,6.89,0,0,1-1.07-.75,6.78,6.78,0,0,1-1.57-2,15.19,15.19,0,0,1-1.27-4c-.49-2.53-.83-4.92-1.34-7.29a69.54,69.54,0,0,0-1.84-7c-.69-2.34-1.49-4.66-2.29-7-1.62-4.62-3.41-9.21-5.32-13.71Z"/><path d="M297.69,144l0,.12c0,.12,0,.33,0,.48a8.15,8.15,0,0,1-.08,1.46,10.11,10.11,0,0,1-.58,2.15,11.29,11.29,0,0,1-1.45,2.51,12.88,12.88,0,0,1-2.45,2.37,15.81,15.81,0,0,1-1.54,1c-.27.17-.55.3-.84.45l-.43.22-.22.11-.16.07-.05,0-.1,0-1.67.67a18.44,18.44,0,0,1-1.84.67c-1.35.42-2.78.9-4.2,1.21l-2.2.53-2.29.44c-1.55.33-3.17.53-4.83.78a82.17,82.17,0,0,1-10.56.74c-3.59,0-7.22.06-11,.13s-7.59.13-11.42.13-7.68-.07-11.48-.28c-1,0-1.91-.17-2.86-.25s-1.93-.16-2.83-.31c-1.89-.29-3.7-.66-5.47-1.09a93.21,93.21,0,0,1-10-3c-1.56-.57-3.06-1.15-4.51-1.77-.73-.31-1.41-.6-2.17-1l-.15-.08-.21-.15a.68.68,0,0,1-.16-.13,1.37,1.37,0,0,1-.18-.24c-.19-.34.11.16.08.12l0,0,0,0a.28.28,0,0,0,.1.09l.06,0,0,0,0,0-.1-.05-.24-.11-1-.43a38.58,38.58,0,0,1-7-3.84,17.92,17.92,0,0,1-4.43-4.32,10.7,10.7,0,0,1-1.69-3.63,7.85,7.85,0,0,1-.21-1l0-.36.6-.08.07.33a6.82,6.82,0,0,0,.26,1,10.15,10.15,0,0,0,1.81,3.23,17.47,17.47,0,0,0,4.42,3.75,36.82,36.82,0,0,0,6.91,3.23l1,.38.27.1.15.07.08,0h0l.12.07.22.16.15.13,0,0s.31.49.13.17a.83.83,0,0,0-.13-.18.61.61,0,0,0-.1-.09h0l.09,0c.57.27,1.31.53,2,.78,1.43.5,2.94,1,4.49,1.43,3.11.93,6.43,1.78,9.86,2.51,1.72.37,3.49.67,5.24.9.92.13,1.78.15,2.7.23s1.8.16,2.73.17c3.7.11,7.48.1,11.28,0s7.59-.24,11.34-.4,7.5-.3,11.07-.39a82.84,82.84,0,0,0,10-.94c1.57-.29,3.11-.51,4.57-.86l2.16-.46,2.05-.55c1.37-.34,2.52-.77,3.67-1.15a15.78,15.78,0,0,0,1.71-.66l1.66-.71.1,0,.05,0-.08,0h0l.16-.09.32-.18a5.07,5.07,0,0,0,.61-.34,11.54,11.54,0,0,0,1.06-.74,7.39,7.39,0,0,0,1.48-1.49,4.92,4.92,0,0,0,1-2.39,3.33,3.33,0,0,0,0-.57c0-.08,0,0,0,0s0-.07,0-.05Z"/><path d="M183.38,160a7.88,7.88,0,0,0-.45-.95,9.19,9.19,0,0,0-.57-.93,5.54,5.54,0,0,0-1.29-1.34,2.18,2.18,0,0,0-.59-.27,1.51,1.51,0,0,0-.65,0c-.51.1-.79.16-1.14.26a4.9,4.9,0,0,0-.92.37,2.4,2.4,0,0,0-1.15,1.23c-.07.17-.15.35-.22.54l-.11.3,0,.08v.06c0-.05,0,.12,0-.11h0l0,.16a.29.29,0,0,0,0-.16s0,0,0,0,0,0,0,0a1.05,1.05,0,0,0,.12.27A7.29,7.29,0,0,0,178,161c.35.26.73.51,1.11.76s.73.46,1.28.9l-.21-.14c1.31.74,2.6,1.48,3.89,2.27.32.19.65.41,1,.61s.34.24.57.45a2.87,2.87,0,0,1,.24.31,3.09,3.09,0,0,1,.17.29,6,6,0,0,1,.65,2.39,4,4,0,0,1-.16,1.28,2.55,2.55,0,0,1-.72,1.11,4.84,4.84,0,0,1-1,.69,7.25,7.25,0,0,1-1.08.45,6,6,0,0,1-2.27.33,3.16,3.16,0,0,1-1.13-.26,2,2,0,0,1-.85-.74l0,0a2.19,2.19,0,0,0,1.94.72,5.73,5.73,0,0,0,2.06-.55,5.51,5.51,0,0,0,.92-.53,4.19,4.19,0,0,0,.77-.65,1.69,1.69,0,0,0,.4-.8,3.14,3.14,0,0,0,0-.92,4.88,4.88,0,0,0-.71-1.82l-.13-.17a.92.92,0,0,0-.12-.13c-.06,0-.23-.12-.34-.18l-1-.46c-1.33-.61-2.7-1.18-4.06-1.74l-.21-.14c-.2-.11-.69-.35-1.09-.54l-1.27-.65a9.87,9.87,0,0,1-2.6-1.89,3.81,3.81,0,0,1-.61-.9,3.69,3.69,0,0,1-.22-.64c0-.12,0-.24-.05-.37a2.9,2.9,0,0,1,0-.51l0-.18.06-.3.08-.36q.09-.37.21-.78a6.06,6.06,0,0,1,.8-1.67,5.67,5.67,0,0,1,1.36-1.4,8.14,8.14,0,0,1,1.54-.89,15.08,15.08,0,0,1,1.5-.57,5.64,5.64,0,0,1,2.09-.26,5.73,5.73,0,0,1,2.05.51,9.07,9.07,0,0,1,2.95,2.18,13,13,0,0,1,1.06,1.29,14.38,14.38,0,0,1,.93,1.44Z"/></g></g></svg>